<?xml version="1.0" standalone="no"?>
<!DOCTYPE svg PUBLIC "-//W3C//DTD SVG 20010904//EN"
 "http://www.w3.org/TR/2001/REC-SVG-20010904/DTD/svg10.dtd">
<svg version="1.0" xmlns="http://www.w3.org/2000/svg"
 width="1280.000000pt" height="1045.000000pt" viewBox="0 0 1280.000000 1045.000000"
 preserveAspectRatio="xMidYMid meet">

<g transform="translate(0.000000,1045.000000) scale(0.100000,-0.100000)"
fill="#000000" stroke="none">
<path d="M6528 9790 c-122 -22 -259 -79 -343 -143 -22 -17 -195 -184 -385
-372 -443 -438 -1402 -1379 -1545 -1515 -230 -220 -1644 -1650 -1774 -1795
-151 -168 -232 -385 -217 -587 13 -174 65 -312 166 -446 50 -66 3253 -3276
3600 -3607 63 -61 147 -131 186 -157 183 -122 462 -156 680 -83 179 60 228 99
659 524 741 729 3149 3149 3245 3260 163 188 220 331 222 551 1 90 -3 132 -21
195 -32 114 -90 228 -164 320 -104 128 -3560 3578 -3714 3706 -61 51 -189 114
-273 134 -79 18 -258 27 -322 15z m256 -135 c163 -34 306 -114 281 -155 -4 -6
-23 0 -48 14 -65 37 -185 77 -254 83 l-63 6 3 -134 c2 -131 -6 -260 -18 -279
-3 -6 -30 -10 -58 -10 -78 0 -177 -24 -248 -61 -53 -26 -108 -75 -317 -283
-149 -148 -250 -256 -247 -264 2 -7 0 -10 -5 -7 -6 3 -10 1 -10 -5 0 -6 -4 -8
-10 -5 -5 3 -10 -1 -10 -10 0 -9 -4 -13 -10 -10 -5 3 -10 -1 -10 -10 0 -10 5
-13 12 -9 7 4 8 3 4 -5 -5 -8 -12 -9 -20 -2 -9 7 -12 0 -11 -29 l0 -39 25 22
c14 12 -88 -93 -226 -233 -362 -368 -518 -529 -528 -548 -5 -9 -18 -26 -28
-36 -10 -11 -18 -25 -18 -32 0 -7 -6 -17 -13 -21 -7 -4 -24 -22 -37 -39 -216
-269 -223 -277 -401 -426 -24 -20 -64 -55 -89 -78 -47 -44 -140 -105 -140 -92
0 4 -4 3 -8 -3 -4 -5 -52 -53 -107 -105 -55 -52 -198 -191 -318 -308 -126
-122 -223 -210 -229 -206 -6 4 -8 3 -5 -3 4 -5 -8 -23 -26 -39 -17 -16 -24
-20 -14 -8 9 11 14 24 10 29 -5 4 -2 5 6 0 9 -5 12 -4 7 3 -10 16 -26 15 -26
-1 0 -8 -12 -13 -32 -13 -23 1 -33 -4 -33 -14 0 -21 -26 -50 -45 -50 -24 0
-395 -364 -442 -433 -22 -32 -51 -85 -64 -116 -29 -70 -31 -52 -3 26 19 51 51
104 84 139 97 103 231 250 264 289 23 28 50 59 60 70 97 107 235 275 242 293
5 12 16 25 24 28 8 4 15 10 15 15 0 4 15 23 33 41 18 19 42 48 52 66 11 18 22
32 26 32 4 0 12 13 19 30 7 16 17 27 23 23 5 -3 7 -1 3 5 -3 6 -2 13 4 17 6 4
8 11 5 16 -4 5 1 9 9 9 8 0 18 5 22 12 4 6 3 8 -3 5 -6 -4 -13 0 -17 8 -3 8 0
17 6 21 7 4 8 3 4 -4 -4 -7 -2 -12 3 -12 6 0 11 7 11 16 0 11 -5 14 -16 10 -9
-3 -20 -6 -25 -6 -6 0 -7 -6 -3 -12 5 -10 4 -10 -6 -1 -13 12 -20 9 -147 -56
-48 -24 -97 -61 -161 -118 -14 -13 -28 -23 -31 -23 -3 0 -17 -10 -31 -23 -14
-12 -59 -51 -100 -87 -41 -35 -88 -77 -105 -92 -16 -16 -55 -48 -85 -71 -30
-23 -71 -58 -91 -77 -62 -62 -179 -169 -179 -164 0 2 -8 -4 -18 -13 -11 -10
-17 -21 -15 -25 2 -5 -3 -8 -12 -8 -9 0 -13 -5 -10 -10 3 -6 -2 -13 -12 -17
-10 -4 -47 -35 -83 -69 -43 -42 -68 -60 -76 -53 -6 5 -15 5 -19 1 -5 -4 -5 -1
-1 6 4 7 2 12 -6 12 -7 0 281 294 640 653 358 359 652 658 652 664 0 6 47 59
105 118 58 59 105 110 105 112 0 8 79 81 83 76 2 -2 10 9 16 24 7 15 27 39 45
53 19 14 29 28 24 31 -6 4 -1 10 11 14 11 3 26 15 31 26 6 10 16 19 22 19 6 0
20 10 32 23 11 13 43 41 70 63 27 21 60 48 72 59 13 11 41 36 63 55 22 19 41
41 41 48 0 6 4 11 8 10 5 -2 353 338 774 755 421 417 787 775 814 794 79 57
186 100 319 127 47 9 175 5 239 -9z m734 -557 c26 -23 292 -285 591 -583 680
-675 713 -707 741 -725 30 -20 90 -80 90 -90 0 -4 11 -11 25 -14 14 -4 23 -11
20 -16 -3 -5 3 -11 13 -14 10 -4 25 -18 32 -31 7 -14 17 -25 21 -25 5 0 16
-14 25 -31 11 -22 1017 -1042 1559 -1581 4 -4 -2 -6 -14 -3 -13 2 -21 -1 -21
-11 0 -8 5 -14 10 -14 6 0 10 -5 10 -11 0 -6 20 -34 45 -62 76 -87 137 -230
160 -373 l6 -42 -153 -6 c-84 -4 -188 -9 -230 -12 l-77 -6 -6 -56 c-10 -84
-42 -176 -85 -239 -21 -31 -192 -211 -381 -401 -189 -189 -338 -341 -331 -338
7 4 12 1 12 -8 0 -9 -4 -16 -10 -16 -5 0 -10 -4 -10 -10 0 -5 7 -6 17 -3 25
10 15 -4 -161 -210 -88 -103 -167 -200 -177 -215 -9 -15 -38 -49 -64 -77 -25
-27 -58 -65 -73 -83 -65 -79 -151 -174 -299 -329 -17 -18 -29 -33 -27 -33 3 0
-28 -34 -69 -75 -41 -41 -78 -75 -82 -75 -12 0 -225 -222 -221 -229 2 -3 -2
-12 -10 -19 -8 -7 -14 -10 -14 -7 0 3 -6 0 -14 -7 -8 -7 -11 -17 -8 -22 3 -5
-2 -6 -12 -3 -10 4 -15 3 -11 -3 3 -6 1 -10 -4 -10 -6 0 -11 -6 -11 -13 0 -7
-15 -21 -34 -31 -18 -10 -39 -28 -46 -41 -7 -12 -23 -29 -36 -36 -13 -7 -24
-16 -24 -21 0 -4 -5 -8 -10 -8 -6 0 -30 -20 -54 -45 -25 -25 -48 -45 -53 -45
-5 0 -15 -9 -23 -19 -7 -11 -17 -18 -22 -15 -4 3 -8 1 -8 -5 0 -5 -9 -12 -19
-16 -10 -3 -43 -28 -72 -56 -30 -28 -70 -63 -89 -77 -42 -33 -90 -74 -143
-124 -22 -21 -43 -38 -48 -38 -5 0 -21 -12 -37 -28 -16 -15 -44 -38 -61 -52
-18 -14 -49 -39 -69 -56 -20 -18 -93 -78 -162 -135 -69 -57 -163 -140 -210
-184 -162 -155 -269 -205 -442 -205 -206 0 -286 39 -493 241 -82 80 -170 163
-195 185 -24 21 -80 73 -125 114 -44 41 -131 116 -194 165 -62 50 -146 117
-185 150 -39 33 -91 76 -116 95 -25 19 -50 39 -56 45 -7 5 -24 19 -40 30 -15
11 -48 39 -73 62 -25 23 -50 43 -54 43 -4 0 -20 13 -35 28 -15 15 -44 39 -64
52 -21 14 -43 35 -49 47 -7 13 -16 23 -20 23 -12 0 -54 38 -196 177 -75 73
-140 130 -146 126 -5 -3 -7 -1 -4 4 4 6 -19 32 -51 59 -58 48 -160 151 -197
197 -11 13 -23 23 -27 20 -5 -2 -8 1 -8 7 0 7 -15 28 -34 48 -19 21 -56 60
-81 87 -26 28 -59 68 -73 90 -14 22 -42 56 -64 75 -21 20 -38 40 -38 44 0 5
-12 22 -26 40 -14 17 -36 45 -49 61 -58 73 -164 194 -207 236 -27 26 -48 49
-48 53 0 12 -38 44 -45 38 -3 -4 -3 1 0 10 4 9 1 19 -4 23 -6 3 -9 10 -6 15 3
5 -13 35 -36 66 -23 31 -37 54 -30 50 38 -24 -21 39 -282 303 -202 204 -301
312 -319 347 -51 96 -78 261 -43 261 8 0 15 -5 15 -11 1 -6 6 -1 13 12 12 20
14 14 25 -60 8 -56 23 -107 48 -158 33 -69 56 -95 302 -339 785 -776 921 -909
961 -941 45 -36 94 -78 215 -185 38 -33 78 -67 89 -75 52 -37 244 -238 353
-370 16 -19 39 -46 52 -60 13 -14 33 -41 45 -60 28 -46 325 -352 962 -995 311
-314 360 -351 495 -386 85 -21 315 -1 340 30 3 3 28 17 55 31 38 19 149 124
460 436 538 541 753 760 790 807 17 21 48 60 71 85 22 26 85 101 140 167 100
120 174 198 228 238 16 12 36 29 45 37 9 8 46 40 81 70 36 30 67 58 70 61 3 3
31 24 62 47 81 60 1310 1283 1351 1345 49 75 97 201 97 255 0 35 3 43 12 34
19 -19 38 6 38 49 0 63 -20 139 -58 219 -31 67 -56 96 -230 272 -107 109 -198
195 -203 193 -4 -3 -11 0 -15 6 -5 8 -3 9 7 4 12 -8 12 -6 0 8 -7 9 -17 15
-21 12 -5 -3 -11 4 -15 14 -3 11 -12 18 -19 15 -7 -3 -16 2 -19 10 -4 9 -13
16 -22 16 -8 0 -15 5 -15 10 0 6 -6 10 -13 10 -7 0 -24 11 -39 25 -18 17 -29
21 -34 13 -5 -8 -10 -7 -18 3 -7 8 -72 72 -146 144 -74 71 -210 203 -302 293
-92 90 -172 161 -178 157 -5 -3 -10 -1 -10 5 0 6 -4 8 -10 5 -5 -3 -10 -1 -10
4 0 6 -5 11 -11 11 -20 0 -109 69 -188 145 -42 40 -89 83 -105 96 -16 13 -42
36 -58 52 -16 15 -33 27 -37 27 -4 0 -13 11 -19 25 -6 14 -16 25 -21 25 -5 0
-31 28 -58 63 -27 34 -79 94 -114 133 -86 95 -123 144 -124 166 -2 23 -45 70
-360 388 -150 151 -292 300 -316 330 -24 30 -49 57 -54 60 -5 3 -10 11 -12 18
-1 8 1 11 4 8 4 -3 12 -1 18 4 8 7 20 2 39 -15 15 -14 30 -25 33 -25 3 0 12
-8 20 -17 8 -11 11 -12 7 -3 -7 12 58 -30 76 -49 3 -4 34 -31 70 -61 36 -30
70 -60 75 -66 6 -6 21 -18 34 -27 13 -9 45 -36 70 -60 25 -24 73 -66 106 -94
33 -27 76 -65 96 -84 20 -19 53 -47 74 -64 20 -16 49 -42 65 -57 16 -14 31
-23 34 -20 3 3 6 0 6 -6 0 -12 103 -82 120 -82 6 0 10 -5 10 -11 0 -5 5 -7 12
-3 6 4 8 3 5 -3 -3 -5 3 -17 14 -26 10 -9 19 -15 19 -13 0 3 21 -15 48 -39 26
-24 55 -51 65 -59 9 -9 26 -16 37 -16 20 0 19 3 -9 43 -16 23 -50 65 -75 92
-26 28 -61 69 -79 93 -18 23 -44 57 -60 75 -15 18 -53 70 -84 117 -31 47 -60
87 -65 88 -4 2 -8 9 -8 15 0 7 -20 41 -45 77 -25 36 -53 76 -63 90 -9 14 -27
36 -39 49 -12 14 -27 38 -34 53 -6 15 -15 28 -20 28 -5 0 -9 6 -9 13 -1 6 -19
30 -40 52 -22 22 -40 44 -40 48 0 9 -134 150 -392 412 -141 143 -180 195 -148
195 6 0 32 -19 58 -42z m-1083 -278 c-3 -5 -12 -10 -18 -10 -7 0 -6 4 3 10 19
12 23 12 15 0z m155 -70 c0 -5 6 -7 14 -4 8 3 21 -4 29 -16 8 -12 17 -16 19
-10 2 6 12 3 25 -10 12 -11 29 -20 37 -20 8 0 18 -5 21 -10 4 -6 10 -8 14 -6
12 8 34 -40 26 -55 -5 -8 -4 -10 3 -5 7 4 21 9 33 11 17 3 19 2 9 -10 -7 -8
-15 -13 -19 -11 -4 3 -8 -6 -9 -20 -1 -13 3 -24 8 -24 5 0 14 -9 20 -20 6 -11
7 -20 3 -19 -24 4 -33 -4 -33 -28 0 -17 -3 -23 -8 -16 -4 7 -19 10 -35 8 -20
-4 -25 -2 -21 9 6 16 -17 27 -46 21 -15 -3 -20 0 -17 8 3 9 -5 12 -29 9 -20
-3 -31 -8 -27 -15 4 -6 1 -7 -6 -3 -7 5 -10 14 -7 22 5 12 2 12 -15 3 -16 -8
-25 -7 -40 7 -18 16 -19 16 -19 0 0 -14 -7 -17 -37 -14 -23 2 -38 -2 -41 -10
-3 -9 -8 -10 -16 -3 -9 8 -21 2 -44 -20 -18 -17 -30 -35 -27 -39 3 -5 -1 -11
-7 -13 -8 -3 -6 -6 5 -6 10 -1 17 -9 17 -21 0 -11 6 -18 13 -16 6 1 9 1 4 -1
-4 -3 -4 -10 0 -16 3 -7 -3 -4 -15 7 -13 11 -30 16 -42 13 -18 -5 -25 5 -22
34 1 3 -5 6 -13 6 -8 0 -13 -5 -12 -11 1 -6 -6 -10 -16 -10 -14 2 -15 -1 -5
-13 9 -12 9 -16 -3 -24 -10 -6 -10 -9 -1 -9 18 0 15 -28 -5 -39 -32 -17 9 -23
48 -7 34 14 35 14 34 -5 -2 -23 -25 -51 -25 -30 0 7 -5 9 -10 6 -6 -4 -7 -11
-4 -17 4 -6 1 -8 -7 -6 -8 3 -13 11 -11 17 1 7 -2 10 -8 6 -6 -3 -8 -11 -5
-16 4 -5 1 -9 -4 -9 -6 0 -11 -7 -11 -16 0 -8 -4 -13 -8 -10 -5 3 -9 0 -9 -7
-2 -46 -13 -101 -23 -107 -7 -4 -4 -15 10 -33 12 -15 19 -27 15 -27 -3 0 0
-10 6 -22 10 -19 10 -21 -2 -12 -19 14 -41 12 -47 -5 -3 -8 0 -11 7 -7 12 8
16 -26 4 -38 -4 -4 -8 -17 -8 -29 0 -15 -5 -21 -17 -19 -10 2 -18 0 -18 -3 0
-10 34 -42 54 -49 15 -5 16 -9 6 -21 -7 -9 -15 -13 -19 -10 -3 3 -1 9 5 13 7
4 -4 14 -25 24 l-36 17 24 -20 c21 -17 23 -24 13 -39 -9 -14 -8 -21 3 -30 8
-7 15 -18 15 -24 0 -6 -5 -4 -10 4 -9 14 -12 7 -9 -16 0 -4 -5 -10 -12 -15
-10 -6 -10 -11 -1 -22 10 -11 9 -20 -2 -42 -8 -16 -13 -32 -10 -37 3 -5 2 -8
-3 -7 -11 3 -63 -19 -63 -26 0 -4 6 -3 13 1 8 5 8 2 -2 -9 -12 -15 -11 -17 4
-17 15 0 16 -2 4 -17 -12 -15 -12 -16 4 -10 15 6 17 3 11 -16 -3 -12 -12 -29
-20 -37 -14 -17 -8 -64 7 -54 5 3 9 -2 9 -11 0 -9 -4 -14 -9 -10 -5 3 -12 1
-16 -5 -3 -6 -22 -17 -41 -25 -34 -14 -47 -45 -19 -45 8 0 15 -4 15 -8 0 -4 9
-8 20 -9 11 -1 20 2 20 8 0 5 5 9 12 9 6 0 8 -3 5 -7 -4 -3 0 -18 10 -32 15
-24 15 -25 0 -12 -9 7 -17 10 -17 7 0 -4 -7 0 -16 8 -15 16 -34 13 -34 -4 0
-5 6 -7 14 -4 8 3 19 -3 26 -16 6 -11 16 -17 22 -14 6 4 8 3 4 -4 -3 -6 -18
-9 -31 -6 -20 3 -27 -1 -35 -21 -5 -14 -7 -33 -4 -42 5 -16 4 -16 -6 -3 -10
13 -11 11 -7 -7 6 -25 0 -28 -23 -13 -8 5 -10 10 -3 10 6 0 9 9 5 22 -3 14 -2
19 6 14 7 -4 12 -2 12 3 0 6 -9 11 -20 11 -14 0 -18 -5 -13 -17 4 -11 3 -14
-5 -9 -8 5 -12 0 -12 -13 0 -11 -5 -23 -11 -27 -8 -5 -8 -9 1 -14 8 -5 7 -9
-4 -13 -9 -4 -16 -2 -16 4 0 6 -5 7 -11 3 -8 -5 -6 -10 5 -16 16 -9 16 -11 1
-28 -9 -10 -24 -17 -33 -15 -9 2 -20 4 -24 4 -5 1 -8 5 -8 11 0 5 7 6 17 3 11
-4 14 -3 9 5 -10 17 -46 15 -46 -2 0 -17 -37 -28 -44 -12 -2 6 -5 1 -5 -10 -1
-13 6 -24 18 -27 14 -3 18 -1 14 9 -3 8 0 14 6 14 18 0 26 -5 23 -14 -2 -5 4
-6 13 -2 9 3 13 2 10 -4 -3 -6 -12 -10 -20 -10 -7 0 -15 -6 -18 -13 -3 -8 -19
-12 -43 -10 -112 7 -230 5 -221 -4 4 -3 21 -6 39 -5 20 0 27 -2 19 -7 -10 -6
-9 -9 3 -14 8 -3 22 1 31 9 8 9 15 11 15 5 0 -16 30 -41 51 -41 11 0 19 7 19
18 0 14 -2 15 -10 2 -7 -12 -9 -10 -7 7 1 17 4 20 15 11 7 -6 12 -20 10 -31
-4 -28 -55 -35 -74 -10 -10 13 -13 13 -9 3 4 -11 -5 -20 -30 -29 -19 -7 -39
-10 -43 -7 -5 3 -24 8 -42 11 -35 6 -57 -10 -40 -30 6 -8 5 -12 -3 -13 -44 -3
-57 -8 -57 -18 0 -7 9 -16 20 -19 11 -3 20 -11 20 -16 0 -14 -23 -6 -41 15
-16 20 -17 20 -24 -3 -4 -13 -12 -20 -20 -17 -9 3 -12 0 -8 -10 3 -7 0 -14 -6
-14 -6 0 -11 5 -11 10 0 6 -7 10 -15 10 -8 0 -15 -6 -15 -13 0 -8 -19 -18 -45
-24 -27 -6 -45 -6 -45 -1 0 5 -6 6 -12 3 -7 -4 -5 0 5 8 22 18 22 27 -2 27
-11 0 -21 6 -23 12 -4 10 -9 8 -21 -3 -9 -9 -14 -19 -11 -22 3 -3 -11 -5 -30
-5 -20 0 -43 -7 -51 -16 -16 -15 -12 -21 10 -16 5 1 7 -2 3 -5 -4 -4 -2 -17 3
-28 11 -19 10 -19 -12 -3 -29 20 -46 21 -30 2 10 -12 8 -13 -11 -9 -22 6 -23
6 -5 -14 17 -20 17 -20 0 -20 -47 0 -55 -3 -49 -19 6 -14 4 -15 -9 -4 -13 11
-16 11 -13 -1 2 -8 -3 -13 -9 -11 -7 1 -13 -3 -13 -9 0 -5 -4 -8 -9 -4 -5 3
-13 0 -16 -6 -4 -5 -13 -8 -21 -5 -8 3 -14 1 -14 -4 0 -6 -3 -9 -7 -8 -5 2
-19 -6 -33 -16 -14 -11 -18 -16 -7 -13 9 4 17 1 17 -5 0 -7 -13 -9 -35 -5 -23
4 -35 2 -36 -6 0 -9 -2 -8 -6 1 -2 6 -9 12 -14 12 -4 0 -6 -6 -3 -14 3 -8 -4
-16 -19 -20 -14 -3 -27 -15 -30 -27 -4 -14 -11 -20 -21 -16 -8 3 -17 -1 -20
-9 -3 -8 -17 -14 -31 -14 -15 0 -37 -12 -53 -27 -14 -14 -38 -27 -52 -29 -38
-3 -105 -36 -122 -59 -5 -6 -8 -6 -8 2 0 9 -12 8 -44 -4 -33 -13 -43 -21 -41
-35 2 -10 0 -16 -5 -13 -4 3 -14 -1 -22 -8 -7 -8 -21 -13 -31 -11 -9 1 -15 -1
-12 -6 7 -11 -40 -21 -61 -13 -12 4 -15 3 -10 -5 5 -9 0 -9 -21 -1 -15 5 -24
7 -20 3 10 -10 -24 -33 -50 -34 -13 0 -23 -3 -23 -7 0 -15 -47 -30 -64 -21
-12 7 -18 4 -25 -14 -7 -16 -10 -18 -10 -6 -1 9 -4 25 -7 35 -4 12 -3 14 3 6
7 -9 13 -7 23 8 24 34 129 137 235 229 53 47 111 98 129 113 17 16 56 46 86
67 30 21 69 50 85 64 17 14 33 26 36 26 13 0 118 88 112 94 -4 3 -1 6 5 6 11
0 230 216 326 321 61 68 121 120 140 123 8 1 24 10 36 21 11 10 20 14 20 9 0
-4 18 11 40 35 22 23 40 47 40 52 0 6 5 7 10 4 6 -3 10 2 10 11 0 10 3 15 6
12 6 -7 54 39 54 51 0 4 12 18 26 32 14 13 35 41 45 62 11 20 23 37 27 37 4 0
16 16 27 36 11 20 32 50 47 68 15 17 28 34 28 38 0 11 69 78 80 78 5 0 12 9
15 20 4 11 10 18 14 16 4 -3 15 6 24 18 26 35 81 93 72 76 -8 -13 -7 -13 9 -1
13 11 14 16 4 22 -9 6 -8 9 6 9 11 0 17 3 13 6 -9 9 83 89 99 86 8 -2 14 4 14
13 0 8 5 15 11 15 5 0 7 5 3 12 -4 6 -3 8 3 5 16 -10 58 48 84 116 10 24 20
32 42 28 4 0 6 2 6 6 -4 25 3 43 16 43 8 0 15 6 15 14 0 21 26 67 33 59 4 -3
7 3 7 14 0 12 20 38 48 62 64 57 69 61 76 54 3 -4 6 0 6 7 0 8 32 44 71 82
l71 68 64 0 c35 0 64 -4 64 -10z m-720 -193 c0 -2 -17 -19 -37 -38 l-38 -34
34 38 c33 34 41 42 41 34z m620 -56 c0 -6 -5 -13 -12 -17 -6 -4 -8 -3 -4 4 3
5 0 13 -6 15 -8 3 -6 6 5 6 9 1 17 -3 17 -8z m368 -14 c-1 -2 3 -11 11 -20 9
-11 10 -17 2 -17 -6 0 -11 3 -12 8 0 4 -2 15 -4 25 -2 11 -1 17 2 14 2 -3 3
-7 1 -10z m-466 -22 c-2 -14 -9 -25 -14 -25 -6 0 -7 7 -4 16 3 9 6 20 6 25 0
5 4 9 9 9 4 0 6 -11 3 -25z m451 11 c3 -7 0 -19 -6 -25 -8 -8 -7 -11 5 -11 8
0 21 -7 28 -15 7 -8 16 -12 21 -9 5 3 9 1 9 -4 0 -5 12 -22 26 -38 15 -16 23
-23 20 -16 -4 7 -1 12 8 12 10 0 13 -6 9 -17 -5 -14 -3 -15 7 -6 7 6 19 9 28
6 11 -5 13 -3 7 8 -4 8 8 -1 28 -20 20 -19 34 -38 31 -42 -3 -5 2 -6 10 -3 9
3 13 11 9 18 -3 6 -2 7 3 3 5 -5 9 -12 8 -15 -1 -12 26 -33 35 -28 5 3 11 -4
14 -15 3 -12 10 -18 16 -14 6 3 11 1 11 -5 0 -7 6 -10 13 -7 18 7 81 -24 68
-32 -7 -4 -3 -13 9 -24 11 -9 20 -12 20 -7 0 6 8 5 19 -2 11 -7 17 -16 15 -20
-3 -4 3 -8 12 -8 10 0 14 -3 11 -7 -9 -9 13 -34 24 -27 5 3 9 1 9 -5 0 -6 10
-19 22 -31 12 -11 19 -20 16 -20 -3 0 15 -22 40 -48 53 -55 92 -106 92 -122 0
-5 7 -10 15 -10 8 0 15 -5 15 -10 0 -12 15 -32 48 -62 12 -12 22 -29 22 -38 0
-9 47 -64 105 -122 58 -58 105 -113 105 -121 0 -9 10 -19 22 -23 26 -8 48 -28
48 -43 0 -6 4 -11 10 -11 18 0 222 -199 215 -210 -3 -5 3 -11 13 -14 10 -4 32
-19 48 -34 16 -16 49 -43 74 -60 25 -17 63 -47 85 -67 22 -19 43 -35 47 -35
13 0 58 -47 51 -53 -3 -4 -2 -7 3 -7 9 0 24 -12 114 -90 25 -21 70 -60 100
-86 78 -66 190 -174 190 -183 0 -4 11 -14 25 -21 14 -7 23 -15 20 -18 -2 -2 2
-10 9 -17 7 -7 11 -26 10 -43 -2 -25 1 -29 20 -25 12 3 17 1 11 -4 -5 -4 -10
-14 -10 -22 0 -8 -11 -16 -25 -18 -13 -2 -29 -8 -35 -14 -7 -7 -4 -8 8 -3 13
5 16 2 11 -9 -6 -17 -34 -12 -34 5 0 6 -6 5 -15 -2 -14 -11 -19 -7 -16 12 0 4
-6 5 -14 2 -8 -3 -29 5 -47 17 -18 13 -45 23 -60 23 -27 -1 -32 6 -31 43 0 6
-12 13 -28 15 -16 3 -29 1 -29 -3 0 -4 -12 -2 -26 6 -15 7 -35 12 -46 10 -14
-3 -18 0 -14 10 4 10 -1 15 -15 15 -11 0 -17 5 -14 10 3 6 2 10 -4 10 -6 0 -8
7 -5 15 4 8 1 15 -6 15 -6 0 -9 -4 -5 -9 9 -16 -15 -23 -32 -9 -13 11 -18 10
-26 -4 -10 -15 -12 -15 -26 1 -9 9 -31 23 -49 31 -23 9 -29 15 -20 21 7 4 10
9 8 11 -3 2 -16 9 -29 16 -22 13 -23 12 -17 -5 5 -16 5 -16 -7 -2 -6 9 -22 19
-34 23 -11 4 -24 18 -27 31 -4 17 -13 23 -29 22 -12 0 -26 -6 -30 -12 -5 -5
-5 0 -2 13 5 16 2 22 -10 22 -9 0 -14 3 -12 8 3 4 1 17 -3 28 -6 16 -16 21
-34 19 -14 -2 -26 0 -26 5 0 4 -12 15 -26 25 -24 16 -27 16 -45 -1 -17 -16
-22 -16 -29 -4 -6 8 -10 19 -10 24 0 6 -5 5 -11 -1 -9 -9 -19 -8 -40 3 -16 8
-29 11 -29 8 0 -4 -9 1 -19 10 -13 11 -21 14 -26 7 -8 -13 -54 -6 -69 10 -8 9
-8 10 2 5 22 -13 64 -17 57 -6 -3 5 0 10 7 11 9 0 9 2 -2 6 -8 4 -21 12 -29
20 -14 15 -65 9 -88 -9 -10 -8 -13 -6 -13 6 0 10 -4 14 -10 11 -13 -8 -13 8 1
22 8 8 8 13 0 18 -6 3 -13 -1 -16 -9 -3 -9 -8 -24 -12 -33 -3 -10 -6 -21 -5
-25 1 -4 -5 -5 -13 -2 -17 7 -20 25 -4 22 6 -2 14 3 16 10 4 10 -2 10 -26 -2
-31 -16 -31 -16 -22 7 9 23 8 24 -22 17 -20 -4 -31 -12 -29 -21 2 -8 0 -10 -5
-6 -8 9 -9 13 -12 41 -1 11 -12 14 -41 13 -41 -3 -47 3 -56 49 -2 14 1 21 12
21 10 0 14 -7 11 -19 -5 -17 9 -35 19 -25 9 9 -16 57 -31 57 -8 0 -15 4 -15 9
0 5 -11 16 -24 24 -23 15 -24 15 -19 -3 3 -12 0 -20 -6 -20 -7 0 -9 -6 -5 -12
4 -7 -6 -2 -22 12 -16 14 -31 26 -33 27 -2 2 7 6 19 11 l24 9 -22 5 c-16 4
-22 2 -22 -9 0 -10 -6 -13 -17 -9 -10 3 -4 -6 12 -20 l30 -26 -32 18 c-18 10
-33 24 -33 31 0 7 -7 13 -15 13 -8 0 -15 7 -15 15 0 10 -10 15 -31 15 -27 0
-30 2 -19 15 14 17 10 25 -14 29 -8 1 -24 10 -36 21 -24 21 -28 57 -5 49 8 -4
15 -1 15 5 0 6 -7 12 -15 12 -8 1 -19 3 -25 4 -5 1 -18 3 -27 4 -14 1 -15 3
-5 10 10 6 12 20 8 47 -3 22 -5 39 -6 40 0 0 -6 1 -14 1 -8 0 -12 -7 -9 -16 3
-9 -5 -6 -19 9 -17 19 -31 24 -55 22 -18 -2 -33 1 -33 6 0 5 13 8 30 6 17 -2
35 3 45 12 11 12 15 12 15 2 0 -10 3 -9 10 2 8 13 10 12 10 -4 0 -15 3 -16 15
-6 8 7 15 16 15 21 0 5 -7 9 -15 9 -8 0 -15 6 -16 13 0 9 -2 9 -6 -1 -2 -6 -9
-10 -14 -6 -5 3 -2 18 6 34 17 32 21 66 6 41 -7 -10 -11 -5 -16 18 -3 17 -13
31 -21 31 -8 0 -14 5 -14 10 0 6 8 10 17 10 13 0 14 3 5 12 -7 7 -12 20 -12
29 0 10 -9 21 -20 24 -11 3 -20 11 -20 16 0 5 -4 9 -10 9 -5 0 -10 -11 -10
-25 0 -22 -19 -38 -21 -17 -4 37 -3 69 1 67 3 -2 12 0 20 6 12 7 11 9 -6 9
-17 0 -21 6 -20 28 1 15 4 32 7 37 10 18 3 40 -10 37 -10 -2 -12 6 -7 33 5 23
3 35 -4 35 -6 0 -9 4 -5 9 3 5 -7 19 -21 30 -24 19 -24 26 -1 22 4 0 7 4 7 9
0 7 6 7 20 0 16 -9 18 -8 14 5 -4 8 -10 15 -15 15 -5 0 -9 5 -9 11 0 6 7 8 18
4 13 -5 14 -4 5 6 -10 10 -16 9 -29 -1 -22 -19 -49 -23 -35 -6 6 7 7 17 3 21
-4 5 -2 6 3 2 6 -3 17 -2 25 4 13 7 12 9 -2 9 -11 0 -15 5 -12 15 4 8 9 13 13
11 4 -3 7 3 7 13 0 10 -6 18 -13 18 -7 0 -10 -4 -8 -8 3 -4 -3 -6 -12 -5 -10
2 -19 11 -20 22 -3 18 -2 18 6 -1 8 -17 10 -18 10 -2 1 24 -3 32 -14 29 -5 -1
-1 5 10 14 19 15 19 15 -11 11 -22 -3 -31 -1 -31 9 0 11 3 11 16 1 12 -10 14
-9 8 6 -5 12 -3 16 5 11 8 -5 9 -2 5 9 -4 11 -1 17 7 17 7 0 13 7 13 15 0 8
-4 15 -9 15 -4 0 -8 -5 -8 -11 0 -8 -4 -9 -13 0 -8 6 -16 10 -18 8 -2 -1 2 3
10 10 8 7 18 10 24 6 6 -3 7 -1 3 6 -4 6 -13 8 -19 4 -7 -4 -5 2 3 12 9 11 10
16 3 11 -7 -4 -13 -2 -13 3 0 6 5 11 11 11 5 0 7 5 4 10 -9 14 -25 12 -22 -2
1 -7 -4 -12 -12 -10 -12 3 -12 0 -1 -12 10 -13 10 -16 -4 -16 -9 0 -19 -1 -23
-2 -4 -2 -8 8 -8 22 0 14 -7 28 -15 32 -12 5 -12 7 3 7 9 1 17 5 17 9 0 17
-12 21 -35 12 -18 -7 -25 -5 -29 7 -4 11 -2 14 9 9 8 -3 15 -2 15 3 0 5 10 8
23 7 13 -1 21 4 19 12 -8 43 -10 82 -3 82 5 0 11 -6 14 -14z m-38 -28 c5 4 5
2 2 -5 -6 -9 -18 -10 -45 -4 -2 1 0 6 3 11 5 8 11 8 19 1 7 -6 17 -7 21 -3z
m-482 -81 c4 3 7 4 7 0 0 -17 -20 -14 -36 6 -19 22 -19 22 2 4 11 -9 24 -14
27 -10z m382 -7 c3 -6 -1 -7 -9 -4 -18 7 -21 14 -7 14 6 0 13 -4 16 -10z m110
-49 c3 -5 1 -12 -5 -16 -5 -3 -10 1 -10 9 0 18 6 21 15 7z m-100 -19 c-3 -3
-11 0 -18 7 -9 10 -8 11 6 5 10 -3 15 -9 12 -12z m-895 -73 c-6 -11 -18 -23
-26 -26 -8 -3 -14 -10 -14 -17 0 -6 -28 -41 -63 -76 -34 -36 -75 -81 -89 -102
-15 -20 -34 -42 -42 -50 -29 -29 -125 -176 -119 -182 4 -3 0 -6 -8 -6 -8 0
-27 -18 -42 -40 -27 -38 -70 -86 -248 -280 -48 -52 -99 -108 -114 -125 -48
-54 -191 -199 -271 -275 -197 -187 -238 -224 -389 -351 -22 -19 -41 -37 -43
-41 -2 -5 -8 -8 -14 -8 -9 0 -30 -15 -86 -61 -6 -5 -35 -21 -63 -35 -27 -14
-72 -44 -99 -67 -91 -79 -114 -97 -127 -97 -7 0 4 19 24 43 20 23 432 437 916
920 744 743 895 890 925 896 1 1 -2 -8 -8 -20z m450 0 c0 -6 -4 -7 -10 -4 -5
3 -10 11 -10 16 0 6 5 7 10 4 6 -3 10 -11 10 -16z m-21 -29 c-10 -7 -10 -11 1
-25 10 -12 10 -19 2 -27 -18 -18 -14 -27 11 -22 20 4 20 4 2 -4 -31 -14 -49
-4 -31 17 10 11 12 21 5 33 -11 19 -1 51 13 42 6 -4 5 -10 -3 -14z m601 -15
c0 -8 -7 -15 -15 -15 -13 0 -14 3 -3 15 16 18 18 18 18 0z m1080 -371 c563
-552 1230 -1224 1283 -1292 35 -45 11 -40 -43 10 -30 27 -65 54 -78 59 -13 5
-21 12 -18 17 2 4 -9 8 -26 8 -16 1 -45 13 -64 27 -81 57 -299 242 -439 372
-197 184 -178 164 -366 370 -90 99 -173 189 -185 200 -37 36 -166 198 -177
222 -6 13 -14 23 -19 23 -4 0 -8 5 -8 10 0 9 -30 48 -72 91 -9 10 -14 19 -12
22 3 3 -6 14 -20 25 -14 10 -23 22 -20 25 5 4 -28 59 -46 77 -13 13 -77 97
-85 110 -10 19 54 -42 395 -376z m-1627 341 c-3 -9 -8 -14 -10 -11 -3 3 -2 9
2 15 9 16 15 13 8 -4z m575 -30 c-3 -3 -9 2 -12 12 -6 14 -5 15 5 6 7 -7 10
-15 7 -18z m-608 -280 c0 -2 -10 -9 -22 -15 -22 -11 -22 -10 -4 4 21 17 26 19
26 11z m678 -36 c-1 -17 -4 -25 -8 -18 -5 6 -6 19 -5 28 5 21 4 21 9 21 3 0 4
-14 4 -31z m-18 -32 c0 -5 -4 -5 -10 -2 -5 3 -10 14 -10 23 0 15 2 15 10 2 5
-8 10 -19 10 -23z m141 -236 c-11 -7 -11 -10 0 -14 10 -4 9 -6 -3 -6 -10 -1
-18 3 -18 7 0 12 23 33 29 26 3 -3 -1 -9 -8 -13z m-920 -1 c5 0 9 -7 9 -15 0
-18 -45 -21 -56 -3 -5 7 -3 8 6 3 10 -6 12 -4 7 9 -6 14 -3 17 9 12 8 -3 20
-6 25 -6z m28 -74 c10 -12 8 -13 -8 -9 -12 3 -18 9 -15 14 7 12 10 11 23 -5z
m-114 -57 c-7 -10 -35 -1 -35 11 0 5 9 6 20 3 11 -3 17 -9 15 -14z m190 -78
c3 -5 2 -12 -3 -15 -5 -3 -9 1 -9 9 0 17 3 19 12 6z m136 -30 c-9 -16 -7 -21
19 -30 17 -5 28 -6 25 -1 -8 14 14 23 29 11 7 -6 17 -7 22 -2 12 10 104 2 104
-10 0 -5 -4 -9 -10 -9 -5 0 -10 -10 -11 -22 0 -13 -3 -18 -5 -11 -4 9 -11 9
-29 1 -27 -12 -55 -5 -54 14 0 10 2 10 6 1 7 -19 20 -16 26 7 6 24 4 24 -34 4
-17 -8 -36 -13 -43 -11 -14 6 -89 -27 -81 -35 3 -2 -2 -5 -10 -5 -8 0 -12 4
-9 9 3 4 0 8 -5 8 -6 0 -11 7 -11 15 0 8 -7 15 -16 15 -9 0 -14 6 -11 13 2 6
20 12 40 12 38 0 57 21 41 46 -4 8 -3 9 4 5 7 -4 12 -1 13 6 0 9 2 10 5 1 3
-7 1 -21 -5 -32z m50 6 c-10 -9 -11 -8 -5 6 3 10 9 15 12 12 3 -3 0 -11 -7
-18z m89 11 c0 -4 -4 -8 -9 -8 -6 0 -12 4 -15 8 -3 5 1 9 9 9 8 0 15 -4 15 -9z
m530 2 c0 -5 -2 -10 -4 -10 -3 0 -8 5 -11 10 -3 6 -1 10 4 10 6 0 11 -4 11
-10z m50 -9 c0 -10 -26 -9 -36 2 -4 4 2 7 14 7 12 0 22 -4 22 -9z m-959 -14
c-1 -12 -15 -9 -19 4 -3 6 1 10 8 8 6 -3 11 -8 11 -12z m54 3 c-3 -5 -12 -10
-18 -10 -7 0 -6 4 3 10 19 12 23 12 15 0z m-86 -33 c0 -9 -2 -8 -6 1 -2 6 -10
9 -15 6 -7 -4 -8 -2 -4 5 9 13 26 5 25 -12z m549 4 c3 -9 -2 -11 -19 -7 -13 3
-18 3 -11 0 6 -3 11 -18 11 -32 -1 -17 -3 -21 -6 -9 -2 9 -9 14 -15 11 -6 -4
-8 -2 -4 4 3 6 -1 17 -9 25 -11 12 -12 16 -2 20 23 8 50 2 55 -12z m-408 0 c0
-6 -4 -13 -10 -16 -5 -3 -10 1 -10 9 0 9 5 16 10 16 6 0 10 -4 10 -9z m-100
-37 c0 -8 -19 -13 -24 -6 -3 5 1 9 9 9 8 0 15 -2 15 -3z m113 -11 c-3 -7 -9
-10 -14 -7 -14 8 -11 21 5 21 8 0 12 -6 9 -14z m37 7 c0 -5 -5 -10 -11 -10 -5
0 -7 5 -4 10 3 6 8 10 11 10 2 0 4 -4 4 -10z m370 6 c0 -3 -4 -8 -10 -11 -5
-3 -10 -1 -10 4 0 6 5 11 10 11 6 0 10 -2 10 -4z m-213 -23 c0 -7 -3 -11 -5
-8 -3 3 -12 -1 -21 -8 -14 -10 -14 -10 -4 4 7 9 11 18 8 21 -3 2 1 5 8 5 8 0
14 -6 14 -14z m-316 -13 c5 0 9 -4 9 -10 0 -5 -7 -10 -15 -10 -8 0 -15 5 -15
11 0 6 -7 8 -16 5 -9 -3 -12 -2 -9 5 4 6 14 8 22 5 8 -3 19 -6 24 -6z m169 6
c0 -3 -4 -8 -10 -11 -5 -3 -10 -1 -10 4 0 6 5 11 10 11 6 0 10 -2 10 -4z m55
-36 c-3 -4 2 -10 10 -14 8 -3 15 -10 15 -16 0 -6 -14 -1 -30 12 -21 15 -26 24
-18 29 14 9 31 1 23 -11z m49 2 c3 -5 -1 -9 -9 -9 -8 0 -15 4 -15 9 0 4 4 8 9
8 6 0 12 -4 15 -8z m844 -19 c-10 -2 -18 -9 -18 -14 0 -6 -5 -7 -11 -3 -14 8
8 24 31 23 11 -1 10 -3 -2 -6z m-1328 -43 c0 -5 -7 -7 -15 -4 -8 4 -15 8 -15
10 0 2 7 4 15 4 8 0 15 -4 15 -10z m-200 -50 c0 -5 -5 -10 -11 -10 -5 0 -7 5
-4 10 3 6 8 10 11 10 2 0 4 -4 4 -10z m277 -66 c-3 -3 -12 -4 -19 -1 -8 3 -5
6 6 6 11 1 17 -2 13 -5z m-127 -13 c0 -6 -4 -12 -8 -15 -5 -3 -9 1 -9 9 0 8 4
15 9 15 4 0 8 -4 8 -9z m160 -34 c0 -8 4 -7 11 3 9 13 10 13 6 0 -2 -8 -12
-14 -21 -14 -9 1 -16 -2 -16 -7 0 -5 5 -9 10 -9 6 0 10 -6 10 -12 0 -9 -22
-14 -70 -16 -61 -2 -69 -1 -63 14 5 12 7 13 14 2 6 -9 10 -3 15 19 4 18 10 30
15 27 5 -3 9 -1 9 4 0 5 12 7 26 4 20 -4 25 -2 19 8 -6 9 -3 10 14 1 11 -7 21
-17 21 -24z m103 2 c-8 -8 -13 -7 -18 2 -6 8 -4 10 5 4 10 -6 12 -4 6 11 -6
15 -5 17 5 7 9 -10 10 -16 2 -24z m-256 -21 c-3 -8 -6 -5 -6 6 -1 11 2 17 5
13 3 -3 4 -12 1 -19z m213 12 c7 11 10 7 10 -17 0 -23 -5 -33 -15 -33 -8 0
-14 -5 -12 -12 2 -11 -10 -13 -43 -9 -5 0 -2 10 8 21 9 12 18 25 18 30 1 6 2
16 3 23 1 8 4 7 11 -3 9 -13 11 -13 20 0z m105 -10 c3 -5 1 -10 -4 -10 -6 0
-11 5 -11 10 0 6 2 10 4 10 3 0 8 -4 11 -10z m1562 -6 c-3 -4 -2 -15 4 -25 8
-15 6 -19 -6 -19 -9 0 -13 5 -10 10 3 6 1 10 -4 10 -6 0 -11 7 -11 15 0 8 8
15 17 15 9 0 13 -3 10 -6z m-1753 -48 c-3 -8 -16 -12 -36 -10 -42 5 -48 13 -9
12 17 -1 34 2 38 5 10 11 13 8 7 -7z m-754 -30 c0 -3 -4 -8 -10 -11 -5 -3 -10
-1 -10 4 0 6 5 11 10 11 6 0 10 -2 10 -4z m2803 -12 c-3 -15 -41 -23 -46 -9
-3 7 -3 16 0 19 9 8 48 0 46 -10z m1627 -510 c0 -8 -19 -13 -24 -6 -3 5 1 9 9
9 8 0 15 -2 15 -3z m24 -22 c3 -5 -1 -9 -9 -9 -8 0 -15 4 -15 9 0 4 4 8 9 8 6
0 12 -4 15 -8z m-7114 -366 c0 -2 -8 -10 -17 -17 -16 -13 -17 -12 -4 4 13 16
21 21 21 13z m30 -26 c0 -5 -2 -10 -4 -10 -3 0 -8 5 -11 10 -3 6 -1 10 4 10 6
0 11 -4 11 -10z m-46 -77 c-35 -60 -54 -99 -98 -203 -3 -8 -4 -1 0 15 10 55
103 235 121 235 3 0 -8 -21 -23 -47z m418 -1238 c241 -237 419 -407 477 -455
24 -19 49 -41 56 -47 8 -7 18 -13 24 -13 6 0 11 -6 11 -12 0 -14 80 -73 155
-114 17 -9 38 -24 48 -33 20 -17 91 -60 147 -88 19 -10 41 -23 48 -30 6 -6 22
-15 35 -19 31 -9 157 -93 157 -105 0 -5 5 -9 10 -9 10 0 63 -47 156 -137 24
-24 47 -43 53 -43 5 0 12 -7 15 -16 4 -9 9 -14 12 -11 7 7 74 -58 74 -71 0 -5
8 -16 17 -23 15 -12 16 -12 8 1 -5 9 -5 12 1 7 5 -5 9 -12 10 -15 2 -20 17
-41 25 -36 5 3 9 1 9 -5 0 -18 52 -71 63 -64 7 3 9 3 5 -1 -6 -7 49 -71 145
-168 20 -21 37 -40 37 -44 0 -4 107 -141 120 -154 44 -41 139 -181 200 -295
29 -55 66 -124 82 -154 31 -56 88 -119 410 -446 131 -133 188 -198 192 -218 3
-20 1 -27 -8 -25 -8 2 -236 222 -507 490 -553 545 -596 586 -621 594 -10 3
-18 10 -18 16 0 6 -3 9 -6 5 -3 -3 -13 0 -22 6 -32 25 -482 477 -482 484 0 5
-28 38 -62 73 -34 36 -60 69 -59 73 1 5 -2 6 -7 3 -11 -7 -79 63 -84 86 -1 9
-251 266 -554 572 -303 305 -549 558 -546 561 3 3 0 5 -7 5 -8 0 -11 11 -9 28
2 18 -1 26 -10 24 -8 -1 -11 2 -8 7 4 5 1 12 -4 14 -6 3 -6 5 -1 4 6 -1 101
-92 213 -202z m7399 117 c-7 -14 -6 -19 4 -19 8 0 12 4 9 9 -3 4 3 8 13 8 11
0 -27 -45 -108 -127 -69 -71 -328 -332 -575 -581 -505 -511 -464 -468 -444
-457 16 9 -10 -23 -77 -95 -112 -119 -143 -155 -143 -163 0 -4 -4 -5 -10 -2
-5 3 -10 2 -10 -3 0 -5 -46 -57 -103 -116 -57 -59 -101 -109 -98 -111 2 -3 -2
-5 -9 -5 -13 0 -60 -49 -60 -62 0 -5 -5 -8 -11 -8 -7 0 -20 -10 -30 -22 -11
-11 -19 -18 -19 -14 0 4 -19 -11 -42 -33 -63 -58 -94 -81 -102 -74 -3 3 -6 0
-6 -9 0 -8 -9 -19 -20 -24 -21 -10 -221 -205 -813 -793 -213 -212 -393 -386
-400 -386 -7 -1 -11 -7 -9 -15 3 -11 0 -11 -12 0 -10 8 -16 9 -16 2 0 -7 -7
-9 -17 -5 -13 5 -15 2 -10 -11 4 -11 3 -15 -4 -11 -5 4 -9 11 -7 15 2 5 111
118 243 252 313 319 415 426 415 438 0 6 4 10 10 10 5 0 9 3 7 8 -1 4 11 21
26 37 15 17 41 57 57 90 16 33 36 71 44 85 9 14 22 41 30 60 27 61 99 177 121
192 5 4 6 8 1 8 -5 0 7 17 27 37 21 20 37 43 37 50 0 8 5 11 10 8 6 -3 10 0
10 7 0 8 9 20 19 28 11 7 18 17 15 21 -2 5 5 13 16 19 11 6 18 15 15 21 -4 5
-1 9 5 9 19 0 240 215 240 233 0 6 3 7 7 4 3 -4 16 7 28 23 31 42 114 130 123
130 5 0 26 17 49 38 113 103 140 127 148 132 5 3 25 21 45 41 32 32 131 111
169 134 9 6 28 21 43 35 38 36 58 52 58 45 0 -3 14 1 30 10 17 9 30 20 30 25
0 6 5 10 10 10 6 0 36 16 66 35 30 19 59 35 64 35 6 0 10 4 10 8 0 5 15 15 33
24 28 14 66 42 196 146 19 15 37 27 41 27 4 0 148 138 321 308 172 169 315
307 317 307 1 0 -2 -8 -7 -18z m-771 -236 c0 -3 -4 -8 -10 -11 -5 -3 -10 -1
-10 4 0 6 5 11 10 11 6 0 10 -2 10 -4z m-720 -383 c-241 -246 -1113 -1112
-1141 -1133 -16 -12 -30 -16 -39 -10 -10 6 15 39 103 134 64 69 117 129 117
133 0 5 15 24 33 43 17 19 47 53 66 75 145 172 304 335 433 445 40 35 75 66
78 69 6 8 142 125 189 163 18 14 56 48 84 75 29 27 68 60 87 73 19 14 43 32
54 41 10 10 24 15 30 13 7 -3 19 2 26 11 7 8 15 15 18 15 3 0 -59 -66 -138
-147z m-4572 67 c96 -71 132 -101 237 -199 33 -31 105 -95 160 -142 118 -102
251 -232 320 -314 88 -105 271 -308 334 -370 33 -33 61 -65 61 -72 0 -7 6 -16
13 -20 21 -13 38 -61 25 -69 -7 -4 -8 -3 -4 4 4 7 1 12 -6 12 -7 0 -292 279
-633 620 -341 341 -615 620 -610 620 6 0 52 -32 103 -70z m3372 -1214 c0 -2
-8 -10 -17 -17 -16 -13 -17 -12 -4 4 13 16 21 21 21 13z"/>
<path d="M5910 8949 c0 -5 11 -9 25 -9 14 0 25 2 25 4 0 2 -11 6 -25 8 -14 3
-25 1 -25 -3z"/>
<path d="M5866 8914 c-11 -7 -17 -16 -14 -19 3 -3 13 1 21 10 14 14 16 13 19
-3 3 -16 4 -16 22 2 14 14 15 18 4 14 -9 -4 -19 -3 -24 2 -5 5 -18 2 -28 -6z"/>
<path d="M5780 8876 c0 -8 4 -17 9 -20 5 -4 7 3 4 14 -6 23 -13 26 -13 6z"/>
<path d="M5902 8870 c-25 -24 -29 -42 -7 -34 8 4 12 10 9 15 -3 5 5 9 18 10
13 0 17 3 10 6 -6 2 -10 9 -6 14 9 15 -1 10 -24 -11z"/>
<path d="M5847 8873 c-11 -17 13 -28 26 -13 9 10 9 11 0 6 -6 -3 -13 -1 -15 6
-3 9 -6 9 -11 1z"/>
<path d="M5720 8751 c0 -5 -9 -11 -20 -14 -14 -4 -18 -10 -14 -24 6 -16 5 -16
-10 2 l-16 20 7 -20 c6 -17 4 -18 -8 -8 -13 10 -16 10 -16 -2 0 -8 3 -15 7
-15 6 0 30 -44 30 -56 0 -3 -10 1 -22 7 -13 7 -25 11 -28 10 -2 -1 -6 3 -8 11
-2 8 0 9 5 3 10 -12 33 -18 33 -7 0 4 -12 18 -27 32 -19 18 -25 20 -20 8 3
-10 2 -18 -4 -18 -5 0 -9 -6 -7 -12 2 -7 -2 -13 -7 -13 -6 0 -10 7 -9 16 1 9
-5 16 -12 16 -7 0 -12 -5 -11 -11 1 -6 -6 -10 -15 -8 -10 2 -18 -1 -18 -5 0
-4 -14 -23 -31 -41 -16 -17 -27 -37 -24 -42 4 -6 -1 -7 -11 -3 -12 4 -15 3
-10 -5 4 -7 1 -12 -8 -12 -15 0 -18 -6 -20 -60 -1 -14 -5 -31 -10 -38 -10 -16
24 -13 37 3 5 6 7 4 4 -5 -2 -8 -9 -15 -14 -15 -6 0 -14 -3 -18 -7 -4 -3 -15
2 -26 13 -24 24 -25 36 -1 18 14 -11 15 -11 5 1 -15 17 -17 34 -3 25 6 -3 10
-2 10 4 0 20 -16 16 -45 -13 -16 -16 -25 -26 -18 -23 14 9 27 -9 13 -18 -6 -4
-8 -11 -5 -16 4 -5 1 -9 -5 -9 -7 0 -9 -7 -6 -17 4 -10 4 -14 0 -10 -4 4 -16
-5 -26 -20 -22 -34 -23 -44 -3 -37 9 4 15 0 15 -10 0 -9 8 -16 20 -16 13 0 18
5 14 15 -4 8 -10 15 -16 15 -5 0 -6 5 -3 10 4 6 15 1 26 -12 12 -13 18 -17 14
-10 -3 6 -2 12 3 12 6 0 8 9 5 20 -3 11 0 26 6 33 6 8 8 17 5 20 -4 3 3 5 15
4 11 -1 21 -5 21 -10 0 -5 6 -4 13 2 8 6 17 7 21 3 4 -4 6 0 4 8 -1 8 2 14 7
15 22 1 55 33 50 48 -4 8 -2 18 4 22 7 4 8 0 4 -11 -5 -13 -3 -15 7 -9 38 24
110 91 110 103 0 5 11 14 25 20 29 13 31 24 9 46 -8 9 -12 16 -7 16 5 0 14 -5
19 -10 7 -7 18 -2 34 15 13 14 20 25 16 25 -4 0 -1 6 6 14 7 8 17 12 21 9 5
-3 3 4 -5 16 -16 26 -28 27 -21 2 3 -12 -2 -23 -15 -30 -27 -14 -35 -2 -17 26
9 13 11 23 5 23 -5 0 -10 -4 -10 -9z m-150 -153 c10 -21 10 -21 -3 -6 -8 10
-18 14 -22 10 -5 -4 -5 -1 -1 6 10 17 14 15 26 -10z m-117 -93 c-3 -9 -8 -14
-10 -11 -3 3 -2 9 2 15 9 16 15 13 8 -4z m-73 -140 c0 -8 -2 -15 -4 -15 -2 0
-6 7 -10 15 -3 8 -1 15 4 15 6 0 10 -7 10 -15z"/>
<path d="M5322 8443 c-6 -2 -10 -9 -6 -14 3 -5 -2 -9 -11 -9 -9 0 -13 -5 -10
-10 8 -13 40 4 49 25 5 15 1 17 -22 8z"/>
<path d="M5416 8385 c-7 -20 9 -28 23 -11 9 10 8 15 -3 19 -8 3 -17 -1 -20 -8z"/>
<path d="M5284 8364 c-1 -13 2 -21 7 -18 11 6 12 31 2 37 -5 3 -9 -6 -9 -19z"/>
<path d="M5280 8306 c0 -17 -2 -18 -10 -6 -8 13 -10 12 -10 -2 0 -10 5 -18 10
-18 6 0 10 -5 10 -11 0 -6 -12 -1 -26 10 -15 12 -32 21 -38 21 -6 0 -4 -4 4
-10 17 -11 12 -18 -18 -23 -12 -2 -24 -6 -28 -10 -4 -3 3 -5 15 -2 11 2 21 1
21 -3 0 -4 11 -8 25 -8 23 -2 24 0 13 15 -12 14 -11 15 4 2 10 -7 15 -17 12
-22 -3 -5 0 -9 6 -9 6 0 15 11 20 25 5 14 12 25 16 25 3 0 4 -7 0 -15 -7 -20
-4 -19 23 4 22 19 22 20 4 38 -27 26 -53 26 -53 -1z"/>
<path d="M5185 8222 c-2 -7 -1 -11 4 -8 5 3 11 -3 14 -15 4 -16 3 -18 -8 -9
-11 9 -12 7 -8 -9 5 -19 6 -20 28 -3 12 9 20 23 17 31 -4 10 -1 12 8 6 8 -5
11 -3 8 5 -6 18 -56 19 -63 2z"/>
<path d="M5160 8184 c0 -6 7 -19 16 -30 14 -18 14 -18 3 6 -14 31 -19 36 -19
24z"/>
<path d="M5135 8150 c3 -5 10 -10 16 -10 5 0 9 5 9 10 0 6 -7 10 -16 10 -8 0
-12 -4 -9 -10z"/>
<path d="M5140 8120 c-8 -5 -12 -12 -9 -15 4 -3 12 1 19 10 14 17 11 19 -10 5z"/>
<path d="M2636 5951 c-4 -5 -2 -12 3 -15 5 -4 12 -2 15 3 4 5 2 12 -3 15 -5 4
-12 2 -15 -3z"/>
<path d="M9524 6739 c0 -10 4 -19 8 -19 4 0 8 6 8 14 0 8 -4 17 -8 20 -4 2 -8
-4 -8 -15z"/>
<path d="M9555 6730 c3 -5 1 -11 -5 -15 -5 -3 -10 -12 -10 -18 0 -8 3 -8 9 1
7 11 9 10 15 -3 3 -9 11 -13 17 -9 7 4 9 3 5 -4 -3 -6 4 -18 16 -26 12 -9 19
-16 15 -16 -4 0 -3 -9 3 -20 6 -11 15 -20 21 -20 6 0 7 6 2 13 -9 15 -16 53
-7 45 3 -3 7 -14 8 -24 4 -23 42 -38 50 -18 3 8 10 14 16 14 7 0 7 -6 0 -20
-8 -15 -17 -19 -31 -15 -23 8 -25 -8 -3 -30 12 -11 20 -13 29 -5 9 7 15 7 19
1 4 -5 2 -12 -3 -16 -15 -9 -1 -35 15 -28 20 8 17 23 -3 17 -15 -5 -16 -4 -3
5 8 6 24 11 36 11 12 0 21 7 21 15 0 8 -4 15 -9 15 -4 0 -8 -4 -8 -10 0 -21
-27 -9 -39 17 -10 22 -10 29 1 38 11 8 9 14 -7 30 -11 11 -19 18 -18 16 2 -2
-2 -10 -9 -18 -9 -11 -7 -12 8 -7 14 4 16 3 5 -4 -7 -5 -21 -9 -29 -8 -22 4
-28 26 -7 26 15 0 15 2 4 16 -7 8 -21 13 -31 11 -10 -3 -21 0 -25 5 -4 7 -1 8
6 3 10 -6 11 -3 1 14 -9 18 -30 21 -30 5 0 -3 5 -2 12 2 6 4 8 3 5 -3 -7 -11
-43 -11 -54 1 -5 4 -3 6 2 4 6 -1 12 1 15 6 3 5 -3 10 -13 12 -9 1 -15 -2 -12
-6z"/>
<path d="M9736 6612 c-9 -15 9 -31 24 -22 13 8 12 10 -3 10 -10 0 -15 5 -12
10 3 6 4 10 1 10 -3 0 -7 -4 -10 -8z"/>
<path d="M9816 6541 c-3 -4 -4 -18 -1 -30 2 -12 0 -19 -4 -16 -5 3 -12 -2 -15
-11 -3 -8 -2 -12 4 -9 6 3 10 1 10 -4 0 -6 -5 -11 -10 -11 -6 0 -5 -8 2 -19 7
-11 16 -17 20 -15 4 3 8 0 8 -6 0 -6 4 -9 9 -6 12 8 43 -28 39 -45 -2 -9 4
-13 16 -11 11 2 15 -1 11 -7 -4 -7 6 -11 28 -11 19 0 40 -7 47 -15 15 -18 -1
-20 -19 -2 -9 8 -12 8 -7 0 3 -6 0 -13 -7 -15 -9 -2 -7 -9 7 -22 19 -19 19
-19 13 0 -7 19 -7 19 8 0 8 -11 15 -25 15 -32 0 -16 28 -26 36 -12 4 6 3 8 -4
4 -6 -3 -14 -1 -17 5 -11 16 3 23 19 10 8 -7 19 -10 24 -7 6 3 16 -2 23 -12
13 -15 12 -16 -3 -4 -14 11 -18 10 -28 -8 -6 -11 -16 -17 -22 -14 -6 4 -8 3
-5 -4 4 -5 16 -8 26 -5 10 3 22 -1 26 -8 6 -8 4 -10 -5 -4 -9 6 -11 4 -5 -6
26 -45 48 -68 57 -63 6 4 8 2 4 -4 -7 -12 41 -68 56 -64 5 1 7 -2 4 -7 -3 -5
9 -20 27 -34 48 -37 81 -67 74 -67 -4 0 3 -10 16 -22 12 -13 25 -22 28 -21 3
1 6 -4 6 -11 0 -7 18 -52 41 -100 23 -48 42 -93 42 -99 1 -31 41 -124 60 -139
33 -27 229 -26 253 0 19 20 23 52 7 52 -5 0 -9 3 -9 8 4 18 -24 71 -34 65 -5
-3 -7 -1 -3 5 3 6 -2 24 -11 40 -65 106 -80 129 -98 144 -11 10 -23 17 -26 18
-4 0 -22 15 -41 33 -50 48 -87 77 -98 77 -6 0 -10 5 -10 10 0 6 -7 10 -15 10
-9 0 -12 6 -8 18 3 9 3 14 -2 10 -9 -9 -65 46 -65 62 0 6 -4 8 -10 5 -5 -3
-10 -1 -10 5 0 6 -7 18 -15 26 -8 9 -15 13 -15 9 0 -4 -7 0 -15 9 -8 8 -15 19
-15 24 0 6 -16 20 -35 32 -19 12 -35 27 -35 33 0 7 -4 6 -10 -3 -7 -11 -10
-11 -10 -2 0 7 -4 11 -9 8 -5 -3 -21 4 -35 15 -19 15 -25 27 -21 40 5 16 1 19
-22 19 -16 0 -35 -6 -42 -12 -11 -11 -12 -10 -6 0 4 7 16 17 27 21 18 6 17 8
-9 21 -15 8 -36 25 -47 38 -10 13 -24 21 -31 18 -8 -3 -19 3 -27 12 -11 15
-11 15 3 5 16 -13 29 -8 29 9 0 5 -4 6 -10 3 -5 -3 -10 -1 -10 5 0 7 -7 10
-14 7 -11 -4 -13 -1 -9 10 4 11 2 14 -5 9 -7 -4 -12 -1 -12 8 0 21 -19 20 -43
-1 -19 -18 -19 -17 -6 5 8 12 18 22 24 22 5 1 -3 8 -20 16 -16 8 -22 12 -12 9
10 -3 15 -1 12 5 -8 12 -22 13 -29 1z m173 -180 c7 -5 12 -14 10 -20 -3 -7
-11 -3 -21 9 -18 21 -13 26 11 11z m62 -64 c-10 -9 -11 -8 -5 6 3 10 9 15 12
12 3 -3 0 -11 -7 -18z"/>
<path d="M9766 6531 c-4 -5 3 -7 14 -4 23 6 26 13 6 13 -8 0 -17 -4 -20 -9z"/>
<path d="M9965 6420 c3 -5 8 -10 11 -10 2 0 4 5 4 10 0 6 -5 10 -11 10 -5 0
-7 -4 -4 -10z"/>
<path d="M10080 6296 c0 -2 7 -9 15 -16 9 -7 15 -8 15 -2 0 5 -7 12 -15 16 -8
3 -15 4 -15 2z"/>
<path d="M6745 8650 c3 -5 8 -10 11 -10 2 0 4 5 4 10 0 6 -5 10 -11 10 -5 0
-7 -4 -4 -10z"/>
<path d="M6486 8555 c4 -8 11 -15 16 -15 6 0 5 6 -2 15 -7 8 -14 15 -16 15 -2
0 -1 -7 2 -15z"/>
<path d="M6321 8434 c0 -11 3 -14 6 -6 3 7 2 16 -1 19 -3 4 -6 -2 -5 -13z"/>
<path d="M6116 7942 c-2 -4 4 -8 14 -8 10 0 16 4 14 8 -3 4 -9 8 -14 8 -5 0
-11 -4 -14 -8z"/>
<path d="M6146 7731 c-12 -5 -15 -10 -9 -14 6 -4 16 0 23 8 14 17 13 17 -14 6z"/>
<path d="M5980 7379 c0 -5 5 -7 10 -4 6 3 10 8 10 11 0 2 -4 4 -10 4 -5 0 -10
-5 -10 -11z"/>
<path d="M5995 7310 c3 -5 8 -10 11 -10 2 0 4 5 4 10 0 6 -5 10 -11 10 -5 0
-7 -4 -4 -10z"/>
<path d="M5706 7135 c-3 -8 -1 -15 4 -15 13 0 22 18 11 24 -5 3 -11 -1 -15 -9z"/>
<path d="M5777 7143 c-13 -12 -7 -23 11 -22 10 0 12 3 4 6 -6 2 -10 9 -6 14 6
10 0 12 -9 2z"/>
<path d="M5621 7024 c0 -11 3 -14 6 -6 3 7 2 16 -1 19 -3 4 -6 -2 -5 -13z"/>
<path d="M5423 6963 c-18 -7 -16 -20 2 -20 8 0 12 4 9 8 -2 4 2 10 8 12 7 3 9
5 3 5 -5 0 -16 -2 -22 -5z"/>
<path d="M4947 6729 c7 -7 15 -10 18 -7 3 3 -2 9 -12 12 -14 6 -15 5 -6 -5z"/>
<path d="M4616 6535 c-16 -12 -17 -15 -4 -15 9 0 18 7 22 15 7 18 6 18 -18 0z"/>
<path d="M7020 8330 c0 -5 5 -10 11 -10 5 0 7 5 4 10 -3 6 -8 10 -11 10 -2 0
-4 -4 -4 -10z"/>
<path d="M6918 8293 c7 -3 16 -2 19 1 4 3 -2 6 -13 5 -11 0 -14 -3 -6 -6z"/>
<path d="M7110 7506 c0 -2 7 -6 15 -10 8 -3 15 -1 15 4 0 6 -7 10 -15 10 -8 0
-15 -2 -15 -4z"/>
<path d="M7158 7463 c6 -2 18 -2 25 0 6 3 1 5 -13 5 -14 0 -19 -2 -12 -5z"/>
<path d="M7180 7262 c0 -15 38 -44 44 -34 6 9 -4 20 -31 36 -7 4 -13 3 -13 -2z"/>
<path d="M7330 7159 c0 -5 5 -7 10 -4 6 3 10 8 10 11 0 2 -4 4 -10 4 -5 0 -10
-5 -10 -11z"/>
<path d="M8420 6619 c0 -5 5 -7 10 -4 6 3 10 8 10 11 0 2 -4 4 -10 4 -5 0 -10
-5 -10 -11z"/>
<path d="M8896 6482 c-3 -5 1 -9 9 -9 8 0 15 4 15 9 0 4 -4 8 -9 8 -6 0 -12
-4 -15 -8z"/>
<path d="M6010 6942 c-20 -9 -23 -29 -4 -29 8 0 14 6 14 13 0 7 6 15 13 17 6
3 8 5 2 6 -5 0 -17 -3 -25 -7z"/>
<path d="M5960 6915 c0 -8 2 -15 4 -15 2 0 6 7 10 15 3 8 1 15 -4 15 -6 0 -10
-7 -10 -15z"/>
<path d="M2831 4734 c0 -11 3 -14 6 -6 3 7 2 16 -1 19 -3 4 -6 -2 -5 -13z"/>
</g>
</svg>
